<svg xmlns="http://www.w3.org/2000/svg" viewBox="0 0 48 48">
  <rect width="48" height="48" rx="11" fill="#f5a623"/>
  <g transform="translate(4,3.5) scale(1.65)">
    <path fill="#141414" d="M12 21c-4.2 0-7.4-3.2-7.4-7.4 0-3.7 2.2-6.2 4.1-8.6.3 2.4 1.2 4 2.7 4.8-.5-2.7.1-5.4 2-7.5.7 3.1 2.1 5.1 3.8 7 1.4 1.7 2.1 3.2 2.1 4.6 0 4.2-2.9 7.4-7.4 7.4z"/>
    <path fill="#f5a623" d="M12 18c-1.8 0-3-1.3-3-3.1 0-1.2.6-2 1.4-2.9.1.9.5 1.6 1.1 1.9-.2-1.1.1-2 .8-2.7.3 1.2.9 1.9 1.5 2.6.6.7.9 1.2.9 1.7 0 1.6-1.1 2.5-2.7 2.5z"/>
  </g>
</svg>
